0
SECTION
2
HEADER
9
$INSUNITS
70
1
9
$ACADVER
1
AC1014
9
$HANDSEED
5
FFFF
0
ENDSEC
0
SECTION
2
TABLES
0
TABLE
2
VPORT
5
8
100
AcDbSymbolTable
0
ENDTAB
0
TABLE
2
LTYPE
5
5
100
AcDbSymbolTable
0
LTYPE
5
14
100
AcDbSymbolTableRecord
100
AcDbLinetypeTableRecord
2
BYBLOCK
70
0
0
LTYPE
5
15
100
AcDbSymbolTableRecord
100
AcDbLinetypeTableRecord
2
BYLAYER
70
0
0
ENDTAB
0
TABLE
2
LAYER
5
2
100
AcDbSymbolTable
70
2
0
LAYER
5
50
100
AcDbSymbolTableRecord
100
AcDbLayerTableRecord
2
0
70
0
6
CONTINUOUS
0
ENDTAB
0
TABLE
2
STYLE
5
3
100
AcDbSymbolTable
70
1
0
STYLE
5
11
100
AcDbSymbolTableRecord
100
AcDbTextStyleTableRecord
2
STANDARD
70
0
0
ENDTAB
0
TABLE
2
VIEW
5
6
100
AcDbSymbolTable
70
0
0
ENDTAB
0
TABLE
2
UCS
5
7
100
AcDbSymbolTable
70
0
0
ENDTAB
0
TABLE
2
APPID
5
9
100
AcDbSymbolTable
70
2
0
APPID
5
12
100
AcDbSymbolTableRecord
100
AcDbRegAppTableRecord
2
ACAD
70
0
0
ENDTAB
0
TABLE
2
DIMSTYLE
5
A
100
AcDbSymbolTable
70
1
0
ENDTAB
0
TABLE
2
BLOCK_RECORD
5
1
100
AcDbSymbolTable
70
1
0
BLOCK_RECORD
5
1F
100
AcDbSymbolTableRecord
100
AcDbBlockTableRecord
2
*MODEL_SPACE
0
BLOCK_RECORD
5
1B
100
AcDbSymbolTableRecord
100
AcDbBlockTableRecord
2
*PAPER_SPACE
0
ENDTAB
0
ENDSEC
0
SECTION
2
BLOCKS
0
BLOCK
5
20
100
AcDbEntity
100
AcDbBlockBegin
2
*MODEL_SPACE
0
ENDBLK
5
21
100
AcDbEntity
100
AcDbBlockEnd
0
BLOCK
5
1C
100
AcDbEntity
100
AcDbBlockBegin
2
*PAPER_SPACE
0
ENDBLK
5
1D
100
AcDbEntity
100
AcDbBlockEnd
0
ENDSEC
0
SECTION
2
ENTITIES
0
LWPOLYLINE
5
100
100
AcDbEntity
8
0
100
AcDbPolyline
90
4
70
1
43
0.0
10
5.5760100660555336
20
0.051959230464849238
10
5.5760100660555336
20
5.5637702540868963
10
0.064199042433487813
20
5.5637702540868963
10
0.064199042433487813
20
0.051959230464849238
0
LWPOLYLINE
5
101
100
AcDbEntity
8
0
100
AcDbPolyline
90
4
70
1
43
0.0
10
11.487602047651126
20
7.8904714462659644
10
11.487602047651126
20
7.6936210525651774
10
15.495627327989922
20
7.6936210525651774
10
15.495627327989922
20
7.8904714462659644
0
LWPOLYLINE
5
102
100
AcDbEntity
8
0
100
AcDbPolyline
90
4
70
1
43
0.0
10
12.517243783947432
20
6.9945552891294893
10
14.485747720955299
20
6.9945552891294893
10
14.485747720955299
20
7.1914056828302764
10
12.517243783947432
20
7.1914056828302764
0
LWPOLYLINE
5
103
100
AcDbEntity
8
0
100
AcDbPolyline
90
4
70
1
43
0.0
10
5.871747619250625
20
2.6043262404115413
10
5.871747619250625
20
0.045271122301305394
10
10.989857855471097
20
0.045271122301305394
10
10.989857855471097
20
2.6043262404115413
0
LWPOLYLINE
5
104
100
AcDbEntity
8
0
100
AcDbPolyline
90
6
70
1
43
0.0
10
5.9612671389637315
20
8.4722854659261007
10
5.9612671477636301
20
5.9132303478158645
10
11.281853301564752
20
5.9132303478158645
10
11.281853301564752
20
8.0785846726579269
10
7.2661052776952681
20
8.0785846726579269
10
7.2661052776952681
20
8.4722854659261007
0
LWPOLYLINE
5
105
100
AcDbEntity
8
0
100
AcDbPolyline
90
4
70
1
43
0.0
10
3.71175626343183
20
6.7235429314537383
10
3.71175626343183
20
6.2904720653120076
10
3.2786853972900984
20
6.2904720653120076
10
3.2786853972900984
20
6.7235429314537383
0
LWPOLYLINE
5
106
100
AcDbEntity
8
0
100
AcDbPolyline
90
4
70
1
43
0.0
10
2.6881342161877377
20
6.2904720653120076
10
2.6881342161877377
20
6.7235429314537383
10
3.1212050823294688
20
6.7235429314537383
10
3.1212050823294688
20
6.2904720653120076
0
LWPOLYLINE
5
107
100
AcDbEntity
8
0
100
AcDbPolyline
90
4
70
1
43
0.0
10
2.5306539012271085
20
6.2904720653120076
10
2.097583035085377
20
6.2904720653120076
10
2.097583035085377
20
6.7235429314537383
10
2.5306539012271085
20
6.7235429314537383
0
LWPOLYLINE
5
108
100
AcDbEntity
8
0
100
AcDbPolyline
90
4
70
1
43
0.0
10
2.6881342161877377
20
6.8810232464143679
10
2.6881342161877377
20
7.3140941125560976
10
3.1212050823294688
20
7.3140941125560976
10
3.1212050823294688
20
6.8810232464143679
0
LWPOLYLINE
5
109
100
AcDbEntity
8
0
100
AcDbPolyline
90
4
70
1
43
0.0
10
4.3023074445341907
20
6.8810232464143679
10
3.8692365783924592
20
6.8810232464143679
10
3.8692365783924592
20
7.3140941125560976
10
4.3023074445341907
20
7.3140941125560976
0
LWPOLYLINE
5
110
100
AcDbEntity
8
0
100
AcDbPolyline
90
4
70
1
43
0.0
10
3.8692365783924592
20
6.7235429314537383
10
4.3023074445341907
20
6.7235429314537383
10
4.3023074445341907
20
6.2904720653120076
10
3.8692365783924592
20
6.2904720653120076
0
LWPOLYLINE
5
111
100
AcDbEntity
8
0
100
AcDbPolyline
90
4
70
1
43
0.0
10
3.71175626343183
20
7.3140941125560976
10
3.71175626343183
20
6.8810232464143679
10
3.2786853972900984
20
6.8810232464143679
10
3.2786853972900984
20
7.3140941125560976
0
LWPOLYLINE
5
112
100
AcDbEntity
8
0
100
AcDbPolyline
90
4
70
1
43
0.0
10
2.5306539012271085
20
6.8810232464143679
10
2.097583035085377
20
6.8810232464143679
10
2.097583035085377
20
7.3140941125560976
10
2.5306539012271085
20
7.3140941125560976
0
LWPOLYLINE
5
113
100
AcDbEntity
8
0
100
AcDbPolyline
90
4
70
1
43
0.0
10
0.42435468862868897
20
8.1605508054694802
10
0.42435468862868897
20
5.9951964747608271
10
4.6292303626682703
20
5.9951964747608271
10
4.6292303626682703
20
8.1605508054694802
0
LWPOLYLINE
5
114
100
AcDbEntity
8
0
100
AcDbPolyline
90
4
70
1
43
0.0
10
16.985631968088803
20
0.084170761965665739
10
16.985631968088803
20
2.6432258800759016
10
11.473820944466757
20
2.6432258800759016
10
11.473820944466759
20
0.084170761965665739
0
CIRCLE
5
115
100
AcDbEntity
8
0
100
AcDbCircle
10
15.592175718052745
20
5.2143035971434069
30
0
40
0.19685039370078736
210
0
220
0
230
1
0
LWPOLYLINE
5
116
100
AcDbEntity
8
0
100
AcDbPolyline
90
4
70
1
43
0.0
10
15.985876505454319
20
6.592256353048918
10
16.103986741674792
20
6.592256353048918
10
16.103986741674792
20
4.2300516286394698
10
15.985876505454319
20
4.2300516286394698
0
LWPOLYLINE
5
117
100
AcDbEntity
8
0
100
AcDbPolyline
90
6
70
1
43
0.0
10
17.16697886765904
20
8.560760290056793
10
15.6631931243758
20
8.560760290056793
10
15.6631931243758
20
6.592256353048918
10
11.655167844036997
20
6.592256353048918
10
11.655167844036997
20
3.0489492664347453
10
17.166978867659044
20
3.0489492664347453
0
CIRCLE
5
118
100
AcDbEntity
8
0
100
AcDbCircle
10
14.804774143249595
20
4.741862652261517
30
0
40
0.19685039370078755
210
0
220
0
230
1
0
CIRCLE
5
119
100
AcDbEntity
8
0
100
AcDbCircle
10
15.592175718052745
20
4.348161864859942
30
0
40
0.19685039370078736
210
0
220
0
230
1
0
LWPOLYLINE
5
120
100
AcDbEntity
8
0
100
AcDbPolyline
90
6
70
1
43
0.0
10
11.245143053505451
20
5.5043748313521377
10
8.0955367542928531
20
5.5043748313521377
10
8.0955367542928531
20
5.1106740380839639
10
5.9301823913178975
20
5.1106740380839639
10
5.930182403051095
20
2.945319713241902
10
11.245143053505451
20
2.945319713241902
0
LWPOLYLINE
5
121
100
AcDbEntity
8
0
100
AcDbPolyline
90
4
70
1
43
0.0
10
10.457741458169204
20
4.953193728989933
10
10.457741458169204
20
4.4807527841080432
10
9.7884501195865283
20
4.4807527841080432
10
9.7884501195865283
20
4.953193728989933
0
ENDSEC
0
SECTION
2
OBJECTS
0
DICTIONARY
5
C
100
AcDbDictionary
3
ACAD_GROUP
350
D
3
ACAD_MLINESTYLE
350
17
0
DICTIONARY
5
D
100
AcDbDictionary
0
DICTIONARY
5
1A
330
C
100
AcDbDictionary
0
DICTIONARY
5
17
100
AcDbDictionary
0
ENDSEC
0
EOF
