0
SECTION
2
HEADER
9
$INSUNITS
70
4
9
$ACADVER
1
AC1014
9
$HANDSEED
5
FFFF
0
ENDSEC
0
SECTION
2
TABLES
0
TABLE
2
VPORT
5
8
100
AcDbSymbolTable
0
ENDTAB
0
TABLE
2
LTYPE
5
5
100
AcDbSymbolTable
0
LTYPE
5
14
100
AcDbSymbolTableRecord
100
AcDbLinetypeTableRecord
2
BYBLOCK
70
0
0
LTYPE
5
15
100
AcDbSymbolTableRecord
100
AcDbLinetypeTableRecord
2
BYLAYER
70
0
0
ENDTAB
0
TABLE
2
LAYER
5
2
100
AcDbSymbolTable
70
2
0
LAYER
5
50
100
AcDbSymbolTableRecord
100
AcDbLayerTableRecord
2
0
70
0
6
CONTINUOUS
0
ENDTAB
0
TABLE
2
STYLE
5
3
100
AcDbSymbolTable
70
1
0
STYLE
5
11
100
AcDbSymbolTableRecord
100
AcDbTextStyleTableRecord
2
STANDARD
70
0
0
ENDTAB
0
TABLE
2
VIEW
5
6
100
AcDbSymbolTable
70
0
0
ENDTAB
0
TABLE
2
UCS
5
7
100
AcDbSymbolTable
70
0
0
ENDTAB
0
TABLE
2
APPID
5
9
100
AcDbSymbolTable
70
2
0
APPID
5
12
100
AcDbSymbolTableRecord
100
AcDbRegAppTableRecord
2
ACAD
70
0
0
ENDTAB
0
TABLE
2
DIMSTYLE
5
A
100
AcDbSymbolTable
70
1
0
ENDTAB
0
TABLE
2
BLOCK_RECORD
5
1
100
AcDbSymbolTable
70
1
0
BLOCK_RECORD
5
1F
100
AcDbSymbolTableRecord
100
AcDbBlockTableRecord
2
*MODEL_SPACE
0
BLOCK_RECORD
5
1B
100
AcDbSymbolTableRecord
100
AcDbBlockTableRecord
2
*PAPER_SPACE
0
ENDTAB
0
ENDSEC
0
SECTION
2
BLOCKS
0
BLOCK
5
20
100
AcDbEntity
100
AcDbBlockBegin
2
*MODEL_SPACE
0
ENDBLK
5
21
100
AcDbEntity
100
AcDbBlockEnd
0
BLOCK
5
1C
100
AcDbEntity
100
AcDbBlockBegin
2
*PAPER_SPACE
0
ENDBLK
5
1D
100
AcDbEntity
100
AcDbBlockEnd
0
ENDSEC
0
SECTION
2
ENTITIES
0
LWPOLYLINE
5
100
100
AcDbEntity
8
0
100
AcDbPolyline
90
4
70
1
43
0.0
10
141.63065567781058
20
1.3197644538071707
10
141.63065567781058
20
141.31976445380718
10
1.6306556778105907
20
141.31976445380718
10
1.6306556778105907
20
1.3197644538071707
0
LWPOLYLINE
5
101
100
AcDbEntity
8
0
100
AcDbPolyline
90
4
70
1
43
0.0
10
291.78509201033864
20
200.4179747351555
10
291.78509201033864
20
195.4179747351555
10
393.58893413094404
20
195.4179747351555
10
393.58893413094404
20
200.4179747351555
0
LWPOLYLINE
5
102
100
AcDbEntity
8
0
100
AcDbPolyline
90
4
70
1
43
0.0
10
317.93799211226479
20
177.66170434388903
10
367.93799211226462
20
177.66170434388903
10
367.93799211226462
20
182.66170434388903
10
317.93799211226479
20
182.66170434388903
0
LWPOLYLINE
5
103
100
AcDbEntity
8
0
100
AcDbPolyline
90
4
70
1
43
0.0
10
149.14238952896591
20
66.149886506453157
10
149.14238952896591
20
1.1498865064531572
10
279.14238952896591
20
1.1498865064531572
10
279.14238952896591
20
66.149886506453157
0
LWPOLYLINE
5
104
100
AcDbEntity
8
0
100
AcDbPolyline
90
6
70
1
43
0.0
10
152.10239764310742
20
75.629435616999544
10
287.10239816464781
20
75.629435616999544
10
287.10239816464781
20
140.62943561699944
10
207.10239816464792
20
140.62943561699944
10
207.10239816464792
20
130.62943546798786
10
152.1023973450842
20
130.62943546798786
0
LWPOLYLINE
5
105
100
AcDbEntity
8
0
100
AcDbPolyline
90
4
70
1
43
0.0
10
267.10239764310722
20
132.62943561699947
10
267.10239764310722
20
122.12943561699946
10
250.10239764310722
20
122.12943561699946
10
250.10239764310722
20
132.62943561699947
0
LWPOLYLINE
5
106
100
AcDbEntity
8
0
100
AcDbPolyline
90
6
70
1
43
0.0
10
151.4161853296788
20
215.19605083452296
10
151.41618555319621
20
150.19605083452296
10
286.55907385974473
20
150.19605083452296
10
286.55907385974473
20
205.19605068551135
10
184.55907405345982
20
205.19605068551135
10
184.55907405345982
20
215.19605083452296
0
LWPOLYLINE
5
107
100
AcDbEntity
8
0
100
AcDbPolyline
90
4
70
1
43
0.0
10
295.11766269401608
20
67.121770022081861
10
295.11766269401608
20
2.1217700220818614
10
425.11766269401608
20
2.1217700220818614
10
425.11766269401608
20
67.121770022081861
0
LWPOLYLINE
5
108
100
AcDbEntity
8
0
100
AcDbPolyline
90
4
70
1
43
0.0
10
94.278609091168477
20
170.77799045892499
10
94.278609091168477
20
159.77799045892502
10
83.278609091168505
20
159.77799045892502
10
83.278609091168505
20
170.77799045892499
0
LWPOLYLINE
5
109
100
AcDbEntity
8
0
100
AcDbPolyline
90
4
70
1
43
0.0
10
68.278609091168533
20
159.77799045892502
10
68.278609091168533
20
170.77799045892499
10
79.278609091168519
20
170.77799045892499
10
79.278609091168519
20
159.77799045892502
0
LWPOLYLINE
5
110
100
AcDbEntity
8
0
100
AcDbPolyline
90
4
70
1
43
0.0
10
64.278609091168562
20
159.77799045892502
10
53.278609091168576
20
159.77799045892502
10
53.278609091168576
20
170.77799045892499
10
64.278609091168562
20
170.77799045892499
0
LWPOLYLINE
5
111
100
AcDbEntity
8
0
100
AcDbPolyline
90
4
70
1
43
0.0
10
68.278609091168533
20
174.77799045892496
10
68.278609091168533
20
185.7779904589249
10
79.278609091168519
20
185.7779904589249
10
79.278609091168519
20
174.77799045892496
0
LWPOLYLINE
5
112
100
AcDbEntity
8
0
100
AcDbPolyline
90
4
70
1
43
0.0
10
109.27860909116845
20
174.77799045892496
10
98.278609091168477
20
174.77799045892496
10
98.278609091168477
20
185.7779904589249
10
109.27860909116845
20
185.7779904589249
0
LWPOLYLINE
5
113
100
AcDbEntity
8
0
100
AcDbPolyline
90
4
70
1
43
0.0
10
98.278609091168477
20
170.77799045892499
10
109.27860909116845
20
170.77799045892499
10
109.27860909116845
20
159.77799045892502
10
98.278609091168477
20
159.77799045892502
0
LWPOLYLINE
5
114
100
AcDbEntity
8
0
100
AcDbPolyline
90
4
70
1
43
0.0
10
94.278609091168477
20
185.7779904589249
10
94.278609091168477
20
174.77799045892496
10
83.278609091168505
20
174.77799045892496
10
83.278609091168505
20
185.7779904589249
0
LWPOLYLINE
5
115
100
AcDbEntity
8
0
100
AcDbPolyline
90
4
70
1
43
0.0
10
64.278609091168562
20
174.77799045892496
10
53.278609091168576
20
174.77799045892496
10
53.278609091168576
20
185.7779904589249
10
64.278609091168562
20
185.7779904589249
0
LWPOLYLINE
5
116
100
AcDbEntity
8
0
100
AcDbPolyline
90
4
70
1
43
0.0
10
10.7786090911687
20
207.27799045892482
10
10.7786090911687
20
152.27799045892502
10
117.58245121177409
20
152.27799045892502
10
117.58245121177409
20
207.27799045892482
0
CIRCLE
5
117
100
AcDbEntity
8
0
100
AcDbCircle
10
376.58992758753993
20
120.02179369822998
30
0
40
5.0000000000000044
210
0
220
0
230
1
0
LWPOLYLINE
5
118
100
AcDbEntity
8
0
100
AcDbPolyline
90
6
70
1
43
0.0
10
436.58992758753988
20
217.02179369822977
10
398.39376970814561
20
217.02179369822977
10
398.39376970814561
20
167.02179369822986
10
296.58992758754016
20
167.02179369822986
10
296.58992758754016
20
77.02179369823007
10
436.58992758753988
20
77.02179369823007
0
LWPOLYLINE
5
119
100
AcDbEntity
8
0
100
AcDbPolyline
90
4
70
1
43
0.0
10
409.58992758753988
20
167.02179369822986
10
409.58992758753988
20
107.02179369822998
10
406.58992758753993
20
107.02179369822998
10
406.58992758753993
20
167.02179369822986
0
CIRCLE
5
120
100
AcDbEntity
8
0
100
AcDbCircle
10
396.58992758753993
20
132.02179369822994
30
0
40
4.9999999999999991
210
0
220
0
230
1
0
CIRCLE
5
121
100
AcDbEntity
8
0
100
AcDbCircle
10
396.58992758753993
20
110.02179369822996
30
0
40
4.9999999999999991
210
0
220
0
230
1
0
ENDSEC
0
SECTION
2
OBJECTS
0
DICTIONARY
5
C
100
AcDbDictionary
3
ACAD_GROUP
350
D
3
ACAD_MLINESTYLE
350
17
0
DICTIONARY
5
D
100
AcDbDictionary
0
DICTIONARY
5
1A
330
C
100
AcDbDictionary
0
DICTIONARY
5
17
100
AcDbDictionary
0
ENDSEC
0
EOF
